<svg id="Layer_1" data-name="Layer 1" xmlns="http://www.w3.org/2000/svg" viewBox="0 0 1080 291.69"><defs><style>.cls-1{fill:#4786ec;}.cls-2{fill:#f4c20d;}</style></defs><path class="cls-1" d="M116,232.09a115.85,115.85,0,0,1-81.91-198,115.67,115.67,0,0,1,156.5-7A15.29,15.29,0,1,1,171,50.58a85.45,85.45,0,1,0,29.15,80.76H116a15.3,15.3,0,0,1,0-30.59H216.79A15.3,15.3,0,0,1,232.09,116,116.53,116.53,0,0,1,116,232.09Z"/><path class="cls-1" d="M262.38,232.09a15.3,15.3,0,0,1-15.29-15.3V15.3a15.3,15.3,0,1,1,30.59,0V216.79A15.3,15.3,0,0,1,262.38,232.09Z"/><path class="cls-2" d="M377.6,223.12a84.93,84.93,0,1,1,84.93-84.92A85,85,0,0,1,377.6,223.12Zm0-139.25a54.33,54.33,0,1,0,54.33,54.33A54.39,54.39,0,0,0,377.6,83.87Z"/><path class="cls-1" d="M377.6,236.25a13.13,13.13,0,0,1,0-26.25,71.8,71.8,0,0,0,0-143.6,13.13,13.13,0,0,1,0-26.25,98.05,98.05,0,0,1,0,196.1Z"/><path class="cls-2" d="M581.2,223.12a84.93,84.93,0,1,1,84.92-84.92A85,85,0,0,1,581.2,223.12Zm0-139.25a54.33,54.33,0,1,0,54.33,54.33A54.39,54.39,0,0,0,581.2,83.87Z"/><path class="cls-1" d="M581.2,236.25a98.05,98.05,0,0,1,0-196.1,13.13,13.13,0,0,1,0,26.25,71.8,71.8,0,0,0,0,143.6,13.13,13.13,0,0,1,0,26.25Z"/><path class="cls-1" d="M765.32,291.69a83.61,83.61,0,0,1-41.91-11.26A15.23,15.23,0,1,1,738.64,254a54.45,54.45,0,0,0,73.91-19.8,54.23,54.23,0,0,0,7.25-27.06V137.85a54.09,54.09,0,0,0-106.4-13.79,53.32,53.32,0,0,0-1.81,13.79,54.11,54.11,0,0,0,64,53.19,15.23,15.23,0,1,1,5.57,30,84.57,84.57,0,1,1,69.11-83.14v69.33a84.29,84.29,0,0,1-62.71,81.56A86,86,0,0,1,765.32,291.69Z"/><path class="cls-1" d="M880.56,232.09c-8.45,0-15.3-5.12-15.3-11.44V70c0-6.32,6.85-11.44,15.3-11.44s15.3,5.12,15.3,11.44V220.65C895.86,227,889,232.09,880.56,232.09Z"/><circle class="cls-1" cx="880.56" cy="29.01" r="15.3"/><path class="cls-1" d="M1064.77,222.77a15.23,15.23,0,0,1-15.24-15.23V138.2a54.09,54.09,0,0,0-106.4-13.79,53.32,53.32,0,0,0-1.81,13.79,54.12,54.12,0,0,0,64,53.19,15.23,15.23,0,1,1,5.56,30A84.57,84.57,0,1,1,1080,138.2v69.34A15.23,15.23,0,0,1,1064.77,222.77Z"/></svg>