<svg id="Layer_1" data-name="Layer 1" xmlns="http://www.w3.org/2000/svg" viewBox="0 0 1080 211.35"><defs><style>.cls-1{fill:#f4c20d;}.cls-2{fill:#4786ec;}</style></defs><path class="cls-1" d="M86.2,620a86.2,86.2,0,1,1,86.19-86.2A86.3,86.3,0,0,1,86.2,620Zm0-141.34a55.15,55.15,0,1,0,55.14,55.14A55.21,55.21,0,0,0,86.2,478.7Z" transform="translate(0 -434.32)"/><path class="cls-2" d="M86.2,633.36a13.32,13.32,0,1,1,0-26.64A72.88,72.88,0,0,0,86.2,461a13.33,13.33,0,1,1,0-26.65,99.52,99.52,0,0,1,0,199Z" transform="translate(0 -434.32)"/><path class="cls-1" d="M292.84,620a86.2,86.2,0,1,1,86.2-86.2A86.29,86.29,0,0,1,292.84,620Zm0-141.34A55.15,55.15,0,1,0,348,533.84,55.21,55.21,0,0,0,292.84,478.7Z" transform="translate(0 -434.32)"/><path class="cls-2" d="M292.84,633.36a99.52,99.52,0,0,1,0-199,13.33,13.33,0,1,1,0,26.65,72.88,72.88,0,0,0,0,145.75,13.32,13.32,0,1,1,0,26.64Z" transform="translate(0 -434.32)"/><path class="cls-2" d="M478.19,607.73a73.89,73.89,0,1,1,47.49-130.49,9.74,9.74,0,0,1-12.52,14.93,54.4,54.4,0,1,0,18.57,51.41H478.19a9.74,9.74,0,1,1,0-19.48h64.15a9.74,9.74,0,0,1,9.74,9.74,74.19,74.19,0,0,1-73.89,73.89Z" transform="translate(0 -434.32)"/><path class="cls-2" d="M571.37,607.73a9.74,9.74,0,0,1-9.74-9.74V469.7a9.74,9.74,0,1,1,19.48,0V598A9.74,9.74,0,0,1,571.37,607.73Z" transform="translate(0 -434.32)"/><path class="cls-2" d="M644.73,602A54.07,54.07,0,1,1,698.8,548,54.13,54.13,0,0,1,644.73,602Zm0-88.66A34.59,34.59,0,1,0,679.32,548,34.63,34.63,0,0,0,644.73,513.36Z" transform="translate(0 -434.32)"/><path class="cls-2" d="M762.42,602A54.07,54.07,0,1,1,816.49,548,54.13,54.13,0,0,1,762.42,602Zm0-88.66A34.59,34.59,0,1,0,797,548,34.63,34.63,0,0,0,762.42,513.36Z" transform="translate(0 -434.32)"/><path class="cls-2" d="M879.65,645.68A53.2,53.2,0,0,1,853,638.5a9.7,9.7,0,1,1,9.7-16.8,34.65,34.65,0,0,0,47.05-12.6,34.51,34.51,0,0,0,4.62-17.23V547.72A34.44,34.44,0,0,0,846.58,539a34,34,0,0,0-1.15,8.77,34.49,34.49,0,0,0,34.45,34.45,34.11,34.11,0,0,0,6.3-.58,9.7,9.7,0,1,1,3.54,19.07,53.22,53.22,0,0,1-9.84.91,53.85,53.85,0,1,1,53.85-53.85v44.15A53.68,53.68,0,0,1,893.8,643.8,54.93,54.93,0,0,1,879.65,645.68Z" transform="translate(0 -434.32)"/><path class="cls-2" d="M953,607.73c-5.38,0-9.74-3.26-9.74-7.29V504.52c0-4,4.36-7.28,9.74-7.28s9.74,3.26,9.74,7.28v95.92C962.76,604.47,958.4,607.73,953,607.73Z" transform="translate(0 -434.32)"/><circle class="cls-2" cx="953.02" cy="44.11" r="9.74"/><path class="cls-2" d="M1070.3,601.79a9.69,9.69,0,0,1-9.7-9.69V548a34.44,34.44,0,0,0-67.74-8.78,33.7,33.7,0,0,0-1.15,8.78,34.49,34.49,0,0,0,34.44,34.45,35,35,0,0,0,6.3-.58,9.7,9.7,0,1,1,3.54,19.07A53.87,53.87,0,0,1,972.31,548a53.32,53.32,0,0,1,1.81-13.79A53.84,53.84,0,0,1,1080,548V592.1A9.69,9.69,0,0,1,1070.3,601.79Z" transform="translate(0 -434.32)"/></svg>