<svg id="Layer_1" data-name="Layer 1" xmlns="http://www.w3.org/2000/svg" viewBox="0 0 1080 567.12"><defs><style>.cls-1{fill:#f4c20d;}.cls-2{fill:#4786ec;}</style></defs><path class="cls-1" d="M245.6,785.6C110.18,785.6,0,675.42,0,540S110.18,294.4,245.6,294.4,491.2,404.58,491.2,540,381,785.6,245.6,785.6Zm0-402.72C159,382.88,88.48,453.36,88.48,540S159,697.12,245.6,697.12,402.72,626.64,402.72,540,332.24,382.88,245.6,382.88Z" transform="translate(0 -256.44)"/><path class="cls-2" d="M245.6,823.56a38,38,0,1,1,0-75.91c114.49,0,207.64-93.15,207.64-207.65S360.09,332.35,245.6,332.35a38,38,0,1,1,0-75.91C402,256.44,529.15,383.65,529.15,540S402,823.56,245.6,823.56Z" transform="translate(0 -256.44)"/><path class="cls-1" d="M834.4,785.6C699,785.6,588.8,675.42,588.8,540S699,294.4,834.4,294.4,1080,404.58,1080,540,969.82,785.6,834.4,785.6Zm0-402.72c-86.64,0-157.12,70.48-157.12,157.12S747.76,697.12,834.4,697.12,991.52,626.64,991.52,540,921,382.88,834.4,382.88Z" transform="translate(0 -256.44)"/><path class="cls-2" d="M834.4,823.56c-156.35,0-283.55-127.21-283.55-283.56S678.05,256.44,834.4,256.44a38,38,0,1,1,0,75.91c-114.49,0-207.64,93.15-207.64,207.65S719.91,747.65,834.4,747.65a38,38,0,1,1,0,75.91Z" transform="translate(0 -256.44)"/></svg>