<svg id="Layer_1" data-name="Layer 1" xmlns="http://www.w3.org/2000/svg" viewBox="0 0 1080 915.35"><defs><style>.cls-1{fill:#f4c20d;}.cls-2{fill:#4786ec;}</style></defs><g id="Vertical"><path class="cls-1" d="M253.65,606.38c-134.12,0-243.24-109.11-243.24-243.23S119.53,119.92,253.65,119.92,496.88,229,496.88,363.15,387.76,606.38,253.65,606.38Zm0-398.83C167.84,207.55,98,277.35,98,363.15s69.8,155.61,155.61,155.61,155.6-69.8,155.6-155.61S339.45,207.55,253.65,207.55Z" transform="translate(0 -82.33)"/><path class="cls-2" d="M253.64,644a37.59,37.59,0,1,1,0-75.18c113.39,0,205.64-92.25,205.64-205.65S367,157.51,253.64,157.51a37.59,37.59,0,1,1,0-75.18c154.85,0,280.83,126,280.83,280.82S408.49,644,253.64,644Z" transform="translate(0 -82.33)"/><path class="cls-1" d="M836.77,606.38c-134.12,0-243.23-109.11-243.23-243.23S702.65,119.92,836.77,119.92,1080,229,1080,363.15,970.89,606.38,836.77,606.38Zm0-398.83c-85.8,0-155.61,69.8-155.61,155.6S751,518.76,836.77,518.76,992.38,449,992.38,363.15,922.57,207.55,836.77,207.55Z" transform="translate(0 -82.33)"/><path class="cls-2" d="M836.77,644C681.92,644,556,518,556,363.15s126-280.82,280.82-280.82a37.59,37.59,0,1,1,0,75.18c-113.39,0-205.64,92.25-205.64,205.64S723.38,568.8,836.77,568.8a37.59,37.59,0,1,1,0,75.18Z" transform="translate(0 -82.33)"/><path class="cls-2" d="M117,937.6a117,117,0,1,1,75.18-206.55,15.42,15.42,0,1,1-19.82,23.62,86.12,86.12,0,1,0,29.38,81.39H117a15.42,15.42,0,0,1,0-30.83H218.49a15.42,15.42,0,0,1,15.42,15.42,117.44,117.44,0,0,1-117,117Z" transform="translate(0 -82.33)"/><path class="cls-2" d="M264.44,937.6A15.41,15.41,0,0,1,249,922.18V719.11a15.42,15.42,0,1,1,30.83,0V922.18A15.42,15.42,0,0,1,264.44,937.6Z" transform="translate(0 -82.33)"/><path class="cls-2" d="M380.57,928.56A85.59,85.59,0,1,1,466.16,843,85.68,85.68,0,0,1,380.57,928.56Zm0-140.34A54.76,54.76,0,1,0,435.32,843,54.82,54.82,0,0,0,380.57,788.22Z" transform="translate(0 -82.33)"/><path class="cls-2" d="M566.87,928.56A85.59,85.59,0,1,1,652.46,843,85.68,85.68,0,0,1,566.87,928.56Zm0-140.34A54.76,54.76,0,1,0,621.62,843,54.81,54.81,0,0,0,566.87,788.22Z" transform="translate(0 -82.33)"/><path class="cls-2" d="M752.44,997.67a84.2,84.2,0,0,1-42.25-11.35,15.35,15.35,0,0,1,15.35-26.59,54.54,54.54,0,0,0,81.8-47.23V842.62A54.52,54.52,0,0,0,700.1,828.73a53.65,53.65,0,0,0-1.82,13.89,54.52,54.52,0,0,0,64.49,53.61,15.35,15.35,0,0,1,5.62,30.19,85.22,85.22,0,0,1-100.82-83.8,84.51,84.51,0,0,1,2.87-21.83A85.22,85.22,0,0,1,838,842.62V912.5a85,85,0,0,1-63.21,82.2A86.39,86.39,0,0,1,752.44,997.67Z" transform="translate(0 -82.33)"/><path class="cls-2" d="M868.58,937.6c-8.52,0-15.42-5.16-15.42-11.53V774.23c0-6.37,6.9-11.53,15.42-11.53S884,767.86,884,774.23V926.07C884,932.44,877.09,937.6,868.58,937.6Z" transform="translate(0 -82.33)"/><circle class="cls-2" cx="868.58" cy="650.6" r="15.42"/><path class="cls-2" d="M1054.23,928.21a15.35,15.35,0,0,1-15.35-15.35V843a54.52,54.52,0,0,0-107.24-13.89A53.71,53.71,0,0,0,929.82,843a54.59,54.59,0,0,0,54.53,54.53,55.61,55.61,0,0,0,10-.91,15.35,15.35,0,1,1,5.61,30.18,85.23,85.23,0,1,1,69.66-83.8v69.89A15.36,15.36,0,0,1,1054.23,928.21Z" transform="translate(0 -82.33)"/></g></svg>