<svg id="Layer_1" data-name="Layer 1" xmlns="http://www.w3.org/2000/svg" viewBox="0 0 1080 296.84"><defs><style>.cls-1{fill:#4786ec;}</style></defs><path class="cls-1" d="M118.09,627.77A118.1,118.1,0,1,1,194,419.21a15.57,15.57,0,0,1-20,23.85,87,87,0,1,0,29.67,82.18H118.09a15.57,15.57,0,0,1,0-31.14H220.62a15.57,15.57,0,0,1,15.57,15.57,118.6,118.6,0,0,1-118.1,118.1Z" transform="translate(0 -391.58)"/><path class="cls-1" d="M267,627.77a15.57,15.57,0,0,1-15.57-15.57V407.14a15.57,15.57,0,0,1,31.14,0V612.2A15.57,15.57,0,0,1,267,627.77Z" transform="translate(0 -391.58)"/><path class="cls-1" d="M384.27,618.64a86.43,86.43,0,1,1,86.43-86.42A86.52,86.52,0,0,1,384.27,618.64Zm0-141.71a55.29,55.29,0,1,0,55.29,55.29A55.36,55.36,0,0,0,384.27,476.93Z" transform="translate(0 -391.58)"/><path class="cls-1" d="M572.39,618.64a86.43,86.43,0,1,1,86.42-86.42A86.52,86.52,0,0,1,572.39,618.64Zm0-141.71a55.29,55.29,0,1,0,55.28,55.29A55.35,55.35,0,0,0,572.39,476.93Z" transform="translate(0 -391.58)"/><path class="cls-1" d="M759.76,688.42A85,85,0,0,1,717.11,677a15.5,15.5,0,1,1,15.5-26.85,55.07,55.07,0,0,0,82.59-47.69V531.86a55,55,0,0,0-108.28-14,54.3,54.3,0,0,0-1.84,14A55,55,0,0,0,770.2,586a15.51,15.51,0,0,1,5.67,30.49,86.12,86.12,0,0,1-101.8-84.62,85.4,85.4,0,0,1,2.9-22.05A86,86,0,0,1,846.2,531.86v70.56a85.77,85.77,0,0,1-63.82,83A87.24,87.24,0,0,1,759.76,688.42Z" transform="translate(0 -391.58)"/><path class="cls-1" d="M877,627.77c-8.6,0-15.57-5.22-15.57-11.64V462.8c0-6.43,7-11.64,15.57-11.64s15.56,5.21,15.56,11.64V616.13C892.6,622.55,885.63,627.77,877,627.77Z" transform="translate(0 -391.58)"/><circle class="cls-1" cx="877.04" cy="29.52" r="15.57"/><path class="cls-1" d="M1064.5,618.28a15.51,15.51,0,0,1-15.51-15.5V532.22a55,55,0,0,0-108.28-14,54.3,54.3,0,0,0-1.84,14A55.05,55.05,0,0,0,1004,586.35a15.5,15.5,0,0,1,5.66,30.48,86.06,86.06,0,0,1-101.79-84.61,85.33,85.33,0,0,1,2.89-22.05A86.05,86.05,0,0,1,1080,532.22v70.56A15.5,15.5,0,0,1,1064.5,618.28Z" transform="translate(0 -391.58)"/></svg>